<?xml version="1.0" encoding="UTF-8"?>
<svg xmlns="http://www.w3.org/2000/svg" xmlns:xlink="http://www.w3.org/1999/xlink" width="1000px" height="700px" viewBox="0 0 1000 700" version="1.1">
<g id="surface1">
<path style=" stroke:none;fill-rule:nonzero;fill:rgb(94.901961%,94.901961%,94.901961%);fill-opacity:1;" d="M 403.476562 564.78125 C 401.613281 562.667969 393.550781 564.929688 392.070312 563.015625 C 390.589844 561.105469 398.082031 558.195312 402.359375 551.550781 C 403.132812 550.351562 407.996094 542.800781 404.398438 540.46875 C 397.574219 536.050781 366.339844 554.28125 355.410156 548.316406 C 353.011719 547.007812 351.335938 544.394531 344.078125 540.148438 C 341.1875 538.460938 339.441406 537.699219 337.75 537.984375 C 335.351562 538.386719 335.164062 540.542969 332.59375 544.78125 C 328.734375 551.140625 326.457031 550.757812 324.207031 555.828125 C 322.539062 559.59375 322.921875 561.785156 320.957031 562.210938 C 318.179688 562.8125 315.625 558.820312 312.105469 559.175781 C 308.511719 559.542969 306.339844 564.195312 305.652344 567.675781 C 304.367188 574.210938 307.941406 578.523438 309.917969 583.054688 C 312.070312 587.984375 313.347656 595.476562 308.378906 606.082031 L 259.203125 699.167969 C 270.058594 680.070312 301.492188 627.707031 314.703125 608.25 C 318.515625 602.632812 322.726562 596.9375 331.371094 594.6875 C 339.695312 592.523438 351.125 593.816406 365.699219 591.457031 C 367.402344 591.179688 372.125 590.375 372.71875 588.507812 C 373.210938 586.964844 370.429688 586.101562 370.859375 584.65625 C 371.433594 582.71875 376.894531 582.695312 383.609375 580.460938 C 388.34375 578.882812 391.289062 577.007812 393.828125 575.394531 C 394.59375 574.910156 405.957031 567.589844 403.476562 564.78125 Z M 403.476562 564.78125 "/>
<path style=" stroke:none;fill-rule:nonzero;fill:rgb(94.901961%,94.901961%,94.901961%);fill-opacity:1;" d="M 210 613.785156 C 207.917969 613.789062 207.246094 617.101562 205.417969 617.035156 C 203.597656 616.972656 203.632812 613.664062 200.011719 610.335938 C 199.359375 609.734375 195.246094 605.953125 192.503906 606.464844 C 187.308594 607.441406 191.613281 623 184.101562 624.882812 C 182.453125 625.296875 180.0625 625.09375 174.867188 626.265625 C 172.800781 626.730469 171.738281 627.085938 171.457031 627.722656 C 171.0625 628.632812 172.582031 629.316406 174.9375 631.386719 C 178.46875 634.492188 177.53125 635.136719 180.585938 637.339844 C 182.859375 638.976562 184.570312 639.480469 184.3125 640.253906 C 183.953125 641.34375 180.296875 641.03125 179.542969 642.296875 C 178.773438 643.585938 181.542969 645.644531 183.890625 646.875 C 188.292969 649.183594 192.472656 649.25 196.355469 649.90625 C 200.574219 650.621094 206.417969 652.359375 212.734375 657.058594 L 266.550781 700.132812 C 255.730469 691.042969 226.546875 665.570312 216.144531 655.597656 C 213.140625 652.722656 210.191406 649.6875 211.042969 646.1875 C 211.863281 642.820312 216.105469 639.425781 218.589844 633.9375 C 218.878906 633.296875 219.648438 631.507812 218.457031 630.773438 C 217.472656 630.164062 216.042969 630.832031 215.109375 630.273438 C 213.859375 629.527344 215.417969 627.71875 215.71875 624.859375 C 215.933594 622.84375 215.417969 621.332031 214.972656 620.027344 C 214.835938 619.636719 212.769531 613.777344 210 613.785156 Z M 210 613.785156 "/>
<path style=" stroke:none;fill-rule:nonzero;fill:rgb(94.901961%,94.901961%,94.901961%);fill-opacity:1;" d="M 251.5 620.042969 L 250.246094 612.527344 L 250.820312 611.957031 C 253.46875 609.324219 254.820312 606.75 254.835938 604.304688 C 254.839844 603.917969 254.8125 603.53125 254.785156 603.132812 C 254.675781 601.566406 254.542969 599.617188 256.054688 597.34375 C 256.902344 596.078125 259.285156 593.144531 262.867188 593.507812 C 263.832031 593.601562 264.558594 593.898438 265.113281 594.246094 C 265.195312 594.160156 265.277344 594.070312 265.367188 593.976562 C 266.484375 592.835938 267.367188 592.34375 268.21875 591.871094 C 268.871094 591.507812 269.546875 591.136719 270.605469 590.25 C 271.070312 589.863281 271.433594 589.519531 271.734375 589.234375 C 272.660156 588.367188 273.875 587.332031 276.007812 587.351562 C 278.285156 587.421875 279.480469 588.691406 280.273438 589.527344 C 281.683594 591.023438 282.328125 592.101562 282.75 592.816406 C 282.902344 593.078125 283.078125 593.371094 283.167969 593.460938 C 283.902344 594.1875 289.875 593.507812 292.125 593.261719 C 297.179688 592.695312 301.550781 592.207031 303.355469 594.347656 C 304.644531 595.878906 303.6875 597.90625 300.417969 600.527344 C 299.398438 601.34375 298.316406 601.964844 297.355469 602.453125 C 298.152344 602.769531 298.863281 603.261719 299.152344 604.03125 C 299.835938 605.851562 297.503906 607.679688 292.226562 609.464844 C 290.917969 609.910156 289.152344 610.503906 286.679688 610.792969 C 285.519531 610.925781 284.46875 610.960938 283.574219 610.976562 C 283.554688 611.324219 283.433594 611.703125 283.117188 612.089844 C 282.191406 613.234375 280.261719 613.777344 277.355469 613.648438 C 274.15625 613.535156 271.523438 613.125 269.203125 612.765625 C 267.171875 612.453125 265.425781 612.191406 264.050781 612.25 C 261.507812 612.390625 259.546875 613.757812 257.246094 615.53125 Z M 251.5 620.042969 "/>
<path style=" stroke:none;fill-rule:nonzero;fill:rgb(94.901961%,94.901961%,94.901961%);fill-opacity:1;" d="M 257.316406 575.289062 L 246.808594 578.011719 L 245.84375 577.785156 C 241.378906 576.730469 237.328125 576.503906 233.8125 577.113281 C 233.25 577.210938 232.695312 577.328125 232.136719 577.445312 C 229.90625 577.914062 227.132812 578.496094 223.476562 578.089844 C 221.4375 577.859375 216.613281 577.054688 216.226562 574.636719 C 216.113281 573.984375 216.355469 573.4375 216.71875 572.988281 C 216.570312 572.957031 216.421875 572.925781 216.265625 572.890625 C 214.335938 572.457031 213.410156 572.007812 212.511719 571.574219 C 211.824219 571.238281 211.113281 570.894531 209.570312 570.433594 C 208.894531 570.230469 208.308594 570.082031 207.820312 569.953125 C 206.335938 569.574219 204.539062 569.050781 204.023438 567.65625 C 203.554688 566.15625 205.074219 565.058594 206.078125 564.332031 C 207.875 563.035156 209.261719 562.347656 210.183594 561.890625 C 210.523438 561.722656 210.902344 561.535156 211.011719 561.453125 C 211.871094 560.792969 209.375 557.082031 208.449219 555.683594 C 206.355469 552.542969 204.535156 549.824219 207.164062 548.113281 C 209.042969 546.882812 212.203125 546.992188 216.808594 548.453125 C 218.242188 548.90625 219.410156 549.453125 220.355469 549.953125 C 220.613281 549.355469 221.136719 548.769531 222.171875 548.386719 C 224.621094 547.480469 227.839844 548.53125 231.75 551.507812 C 232.726562 552.246094 234.03125 553.242188 235.070312 554.773438 C 235.558594 555.496094 235.871094 556.167969 236.125 556.746094 C 236.632812 556.671875 237.203125 556.65625 237.84375 556.761719 C 239.726562 557.074219 241 558.1875 241.546875 560.109375 C 242.199219 562.21875 242.273438 564.035156 242.347656 565.632812 C 242.414062 567.03125 242.472656 568.234375 242.910156 569.109375 C 243.753906 570.730469 246.222656 571.65625 249.359375 572.703125 Z M 257.316406 575.289062 "/>
<path style=" stroke:none;fill-rule:nonzero;fill:rgb(94.901961%,94.901961%,94.901961%);fill-opacity:1;" d="M 251.5 553.148438 L 250.246094 545.632812 L 250.820312 545.0625 C 253.46875 542.425781 254.820312 539.851562 254.835938 537.410156 C 254.839844 537.023438 254.8125 536.632812 254.785156 536.238281 C 254.675781 534.671875 254.542969 532.722656 256.054688 530.449219 C 256.902344 529.183594 259.285156 526.25 262.867188 526.613281 C 263.832031 526.703125 264.558594 527 265.113281 527.351562 C 265.195312 527.261719 265.277344 527.175781 265.367188 527.082031 C 266.484375 525.9375 267.367188 525.449219 268.21875 524.976562 C 268.871094 524.613281 269.546875 524.238281 270.605469 523.355469 C 271.070312 522.964844 271.433594 522.625 271.734375 522.339844 C 272.660156 521.472656 273.875 520.4375 276.007812 520.453125 C 278.285156 520.527344 279.480469 521.792969 280.273438 522.632812 C 281.683594 524.128906 282.328125 525.207031 282.75 525.921875 C 282.902344 526.179688 283.078125 526.476562 283.167969 526.566406 C 283.902344 527.292969 289.875 526.613281 292.125 526.367188 C 297.179688 525.800781 301.550781 525.308594 303.355469 527.453125 C 304.644531 528.984375 303.6875 531.007812 300.417969 533.632812 C 299.398438 534.449219 298.316406 535.070312 297.355469 535.554688 C 298.152344 535.875 298.863281 536.367188 299.152344 537.136719 C 299.835938 538.957031 297.503906 540.78125 292.226562 542.566406 C 290.917969 543.015625 289.152344 543.609375 286.679688 543.894531 C 285.519531 544.03125 284.46875 544.0625 283.574219 544.082031 C 283.554688 544.429688 283.433594 544.808594 283.117188 545.195312 C 282.191406 546.339844 280.261719 546.882812 277.355469 546.753906 C 274.15625 546.640625 271.523438 546.230469 269.203125 545.871094 C 267.171875 545.558594 265.425781 545.292969 264.050781 545.355469 C 261.507812 545.492188 259.546875 546.863281 257.246094 548.636719 Z M 251.5 553.148438 "/>
<path style=" stroke:none;fill-rule:nonzero;fill:rgb(94.901961%,94.901961%,94.901961%);fill-opacity:1;" d="M 262.949219 699.046875 L 260.601562 698.058594 L 260.035156 696.242188 L 260.601562 698.058594 L 257.871094 698.269531 C 257.828125 698.097656 257.675781 697.707031 257.453125 697.09375 C 256.230469 693.734375 252.5 683.507812 249.386719 667.398438 C 247.214844 656.15625 245.988281 644.597656 245.730469 633.035156 C 245.480469 621.457031 246.296875 612.695312 246.949219 605.648438 C 247.441406 600.335938 248.042969 595.277344 248.632812 590.347656 C 250.195312 577.179688 251.675781 564.742188 250.574219 550.972656 C 250.332031 547.898438 249.824219 541.5 244.257812 534.691406 C 241.03125 530.742188 236.585938 527.238281 231.042969 524.277344 L 234.488281 521.367188 C 240.609375 524.640625 245.523438 528.523438 249.109375 532.90625 C 255.277344 540.457031 255.835938 547.429688 256.101562 550.777344 C 257.222656 564.789062 255.726562 577.347656 254.144531 590.640625 C 253.5625 595.554688 252.960938 600.589844 252.472656 605.882812 C 251.820312 612.859375 251.011719 621.550781 251.265625 632.976562 C 251.511719 644.398438 252.730469 655.816406 254.871094 666.921875 C 257.945312 682.824219 261.621094 692.898438 262.828125 696.207031 C 263.472656 697.976562 263.605469 698.347656 262.949219 699.046875 Z M 262.949219 699.046875 "/>
<path style=" stroke:none;fill-rule:nonzero;fill:rgb(94.901961%,94.901961%,94.901961%);fill-opacity:1;" d="M 220.898438 530.179688 C 220.667969 530.179688 220.441406 530.175781 220.207031 530.167969 C 215.496094 529.996094 211.132812 528.101562 207.238281 524.539062 C 205.414062 522.859375 204.480469 520.949219 202.617188 517.132812 C 202.328125 516.546875 200.921875 513.5625 200.070312 509.457031 C 199.507812 506.777344 199.582031 505.652344 200.371094 504.664062 C 201.246094 503.558594 202.667969 502.789062 204.269531 502.273438 C 204.199219 501.914062 204.253906 501.550781 204.484375 501.175781 C 205.429688 499.625 207.933594 499.828125 209.292969 499.925781 C 209.976562 499.984375 210.832031 500.0625 211.757812 500.027344 C 213.207031 499.980469 213.988281 499.691406 215.171875 499.253906 C 216.304688 498.839844 217.710938 498.320312 219.800781 498.03125 C 223.914062 497.457031 227.367188 498.238281 228.503906 498.496094 C 234.484375 499.835938 237.4375 502.960938 240.851562 506.578125 C 241.53125 507.304688 243.867188 509.949219 245.40625 513.570312 C 246.523438 516.183594 246.367188 517.34375 246.03125 518.207031 C 245.351562 519.984375 243.742188 521 239.660156 523.242188 C 235.398438 525.589844 233.257812 526.765625 231.421875 527.480469 C 227.148438 529.140625 224.460938 530.179688 220.898438 530.179688 Z M 220.898438 530.179688 "/>
<path style=" stroke:none;fill-rule:nonzero;fill:rgb(100%,71.372549%,71.372549%);fill-opacity:1;" d="M 480.023438 692.6875 L 494.511719 692.683594 L 501.402344 655.144531 L 480.019531 655.144531 Z M 480.023438 692.6875 "/>
<path style=" stroke:none;fill-rule:nonzero;fill:rgb(18.431373%,18.039216%,25.490196%);fill-opacity:1;" d="M 529.660156 692.464844 C 530.105469 692.976562 530.347656 694.621094 530.347656 695.214844 C 530.347656 697.039062 528.144531 698.519531 525.429688 698.519531 L 480.566406 698.519531 C 478.714844 698.519531 477.214844 697.511719 477.214844 696.265625 L 477.214844 695.011719 C 477.214844 695.011719 474.992188 691.238281 479.5625 686.589844 C 479.5625 686.589844 485.238281 690.230469 493.726562 684.53125 L 496.230469 681.484375 L 514.34375 690.382812 L 524.382812 691.214844 C 526.578125 691.394531 528.527344 691.1875 529.660156 692.464844 Z M 529.660156 692.464844 "/>
<path style=" stroke:none;fill-rule:nonzero;fill:rgb(100%,71.372549%,71.372549%);fill-opacity:1;" d="M 435.875 692.6875 L 450.363281 692.683594 L 457.25 655.144531 L 435.871094 655.144531 Z M 435.875 692.6875 "/>
<path style=" stroke:none;fill-rule:nonzero;fill:rgb(18.431373%,18.039216%,25.490196%);fill-opacity:1;" d="M 485.507812 692.464844 C 485.957031 692.976562 486.195312 694.621094 486.195312 695.214844 C 486.195312 697.039062 483.996094 698.519531 481.277344 698.519531 L 436.414062 698.519531 C 434.5625 698.519531 433.0625 697.511719 433.0625 696.265625 L 433.0625 695.011719 C 433.0625 695.011719 430.84375 691.238281 435.410156 686.589844 C 435.410156 686.589844 441.089844 690.230469 449.578125 684.53125 L 452.082031 681.484375 L 470.195312 690.382812 L 480.234375 691.214844 C 482.429688 691.394531 484.378906 691.1875 485.507812 692.464844 Z M 485.507812 692.464844 "/>
<path style=" stroke:none;fill-rule:nonzero;fill:rgb(18.431373%,18.039216%,25.490196%);fill-opacity:1;" d="M 496.757812 530.570312 L 512.214844 570.769531 L 504.484375 674.003906 L 468.0625 675.644531 L 465.855469 616.214844 L 461.4375 677.390625 L 423.910156 672.148438 L 421.703125 537.558594 Z M 496.757812 530.570312 "/>
<path style=" stroke:none;fill-rule:nonzero;fill:rgb(100%,71.372549%,71.372549%);fill-opacity:1;" d="M 347.171875 395.214844 C 342.183594 389.335938 333.628906 386.300781 328.0625 388.433594 C 322.496094 390.566406 322.023438 397.058594 327.015625 402.9375 C 328.957031 405.304688 331.71875 407.324219 335.0625 408.828125 L 356.65625 433.554688 L 373.710938 426.5 L 350.613281 402.871094 C 350.394531 400.171875 349.214844 397.546875 347.171875 395.214844 Z M 347.171875 395.214844 "/>
<path style=" stroke:none;fill-rule:nonzero;fill:rgb(13.72549%,94.509804%,86.27451%);fill-opacity:1;" d="M 445.304688 482.5 C 445.304688 482.5 424.839844 501.453125 412.320312 494.679688 C 399.804688 487.90625 330.648438 411.785156 330.648438 411.785156 L 358.09375 401.902344 Z M 445.304688 482.5 "/>
<path style=" stroke:none;fill-rule:nonzero;fill:rgb(100%,71.372549%,71.372549%);fill-opacity:1;" d="M 426.121094 459.382812 L 452.609375 432.6875 L 479.101562 440.101562 L 472.476562 463.832031 Z M 426.121094 459.382812 "/>
<path style=" stroke:none;fill-rule:nonzero;fill:rgb(13.72549%,94.509804%,86.27451%);fill-opacity:1;" d="M 428.328125 453.449219 L 474.683594 451.96875 L 505.589844 457.898438 L 512.214844 567.644531 L 419.496094 561.714844 L 419.496094 503.839844 L 406.253906 474.214844 Z M 428.328125 453.449219 "/>
<path style=" stroke:none;fill-rule:nonzero;fill:rgb(24.705882%,23.921569%,33.72549%);fill-opacity:1;" d="M 504.835938 527.480469 C 503.207031 524.285156 502.554688 520.917969 502.976562 517.554688 C 504.160156 508.066406 504.386719 489.472656 489.988281 481.074219 L 481.859375 475.15625 C 481.691406 475.035156 481.5 474.929688 481.324219 474.808594 L 494.78125 453.5625 L 486.652344 451.242188 L 474.167969 470.960938 C 468.628906 468.695312 462.238281 467.441406 455.628906 467.441406 C 447.996094 467.441406 440.703125 469.113281 434.675781 472.058594 L 427.058594 453.3125 L 418.539062 454.875 L 428.0625 476.253906 C 427.714844 476.535156 427.339844 476.796875 427.007812 477.09375 L 422.359375 481.289062 C 421.222656 482.308594 419.972656 483.257812 418.621094 484.148438 C 415.765625 486.027344 410.195312 490.589844 410.140625 497.613281 C 410.121094 500.015625 409.386719 502.390625 408.296875 504.679688 L 402.765625 516.289062 C 402.25 517.378906 401.839844 518.488281 401.5625 519.617188 C 399.125 529.558594 390.6875 576.394531 448.363281 575.457031 C 502.132812 574.582031 505.671875 552.585938 505.359375 545.28125 C 505.289062 543.695312 505.5 542.121094 505.941406 540.566406 C 506.746094 537.707031 507.472656 532.652344 504.835938 527.480469 Z M 504.835938 527.480469 "/>
<path style=" stroke:none;fill-rule:nonzero;fill:rgb(100%,71.372549%,71.372549%);fill-opacity:1;" d="M 747.734375 53.414062 L 752.761719 105.566406 L 689.535156 115.316406 L 693.941406 73.144531 Z M 747.734375 53.414062 "/>
<path style=" stroke:none;fill-rule:nonzero;fill:rgb(100%,71.372549%,71.372549%);fill-opacity:1;" d="M 752.546875 687.257812 L 724.046875 687.253906 L 710.492188 613.40625 L 752.550781 613.40625 Z M 752.546875 687.257812 "/>
<path style=" stroke:none;fill-rule:nonzero;fill:rgb(18.431373%,18.039216%,25.490196%);fill-opacity:1;" d="M 654.90625 686.824219 C 654.019531 687.828125 653.550781 691.066406 653.550781 692.234375 C 653.550781 695.824219 657.882812 698.734375 663.222656 698.734375 L 751.480469 698.734375 C 755.125 698.734375 758.078125 696.75 758.078125 694.300781 L 758.078125 691.832031 C 758.078125 691.832031 762.445312 684.414062 753.457031 675.269531 C 753.457031 675.269531 742.285156 682.429688 725.589844 671.214844 L 720.667969 665.222656 L 685.035156 682.730469 L 665.28125 684.363281 C 660.960938 684.722656 657.128906 684.308594 654.90625 686.824219 Z M 654.90625 686.824219 "/>
<path style=" stroke:none;fill-rule:nonzero;fill:rgb(100%,71.372549%,71.372549%);fill-opacity:1;" d="M 829.808594 687.257812 L 801.3125 687.253906 L 787.753906 613.40625 L 829.816406 613.40625 Z M 829.808594 687.257812 "/>
<path style=" stroke:none;fill-rule:nonzero;fill:rgb(18.431373%,18.039216%,25.490196%);fill-opacity:1;" d="M 732.171875 686.824219 C 731.28125 687.828125 730.8125 691.066406 730.8125 692.234375 C 730.8125 695.824219 735.144531 698.734375 740.484375 698.734375 L 828.746094 698.734375 C 832.386719 698.734375 835.339844 696.75 835.339844 694.300781 L 835.339844 691.832031 C 835.339844 691.832031 839.707031 684.414062 830.71875 675.269531 C 830.71875 675.269531 819.546875 682.429688 802.851562 671.214844 L 797.929688 665.222656 L 762.296875 682.730469 L 742.542969 684.363281 C 738.222656 684.722656 734.390625 684.308594 732.171875 686.824219 Z M 732.171875 686.824219 "/>
<path style=" stroke:none;fill-rule:nonzero;fill:rgb(18.431373%,18.039216%,25.490196%);fill-opacity:1;" d="M 847.75 336.289062 C 847.75 336.289062 872.035156 357.050781 867.621094 368.917969 C 863.207031 380.78125 832.300781 653.660156 832.300781 653.660156 L 788.152344 652.179688 L 761.660156 407.476562 L 754.847656 653.660156 L 713.097656 652.179688 L 660.117188 346.671875 Z M 847.75 336.289062 "/>
<path style=" stroke:none;fill-rule:nonzero;fill:rgb(100%,71.372549%,71.372549%);fill-opacity:1;" d="M 592.503906 402.492188 C 588.332031 413.238281 576.691406 420.507812 566.511719 418.71875 C 556.328125 416.933594 551.460938 406.773438 555.636719 396.019531 C 557.21875 391.710938 560.316406 387.714844 564.664062 384.375 L 583.207031 338.980469 L 614.730469 345.28125 L 593.101562 389.363281 C 594.46875 393.707031 594.261719 398.210938 592.503906 402.492188 Z M 592.503906 402.492188 "/>
<path style=" stroke:none;fill-rule:nonzero;fill:rgb(100%,71.372549%,71.372549%);fill-opacity:1;" d="M 759.453125 54.316406 C 759.453125 77.722656 731.210938 96.695312 696.375 96.695312 C 661.539062 96.695312 633.296875 77.722656 633.296875 54.316406 C 633.296875 30.914062 661.539062 11.941406 696.375 11.941406 C 731.210938 11.941406 759.453125 30.914062 759.453125 54.316406 Z M 759.453125 54.316406 "/>
<path style=" stroke:none;fill-rule:nonzero;fill:rgb(90.196078%,90.196078%,90.196078%);fill-opacity:1;" d="M 688.8125 107.898438 L 755.039062 99 L 827.886719 124.214844 L 843.339844 285.867188 L 863.207031 346.671875 L 657.90625 348.152344 L 666.738281 266.585938 L 653.492188 137.558594 Z M 688.8125 107.898438 "/>
<path style=" stroke:none;fill-rule:nonzero;fill:rgb(90.196078%,90.196078%,90.196078%);fill-opacity:1;" d="M 673.359375 142.007812 C 673.359375 142.007812 638.042969 134.59375 624.792969 147.941406 C 611.550781 161.289062 587.269531 281.417969 587.269531 281.417969 L 562.984375 371.882812 L 607.136719 376.332031 L 679.984375 217.644531 Z M 673.359375 142.007812 "/>
<path style=" stroke:none;fill-rule:nonzero;fill:rgb(100%,71.372549%,71.372549%);fill-opacity:1;" d="M 994.625 350.496094 C 1001.824219 360.5 999.972656 371.101562 990.496094 374.175781 C 981.023438 377.253906 967.511719 371.636719 960.316406 361.632812 C 957.359375 357.660156 955.859375 353.273438 955.945312 348.835938 L 926.25 306.199219 L 956.328125 297.261719 L 982.410156 340.242188 C 987.640625 342.957031 991.832031 346.472656 994.625 350.496094 Z M 994.625 350.496094 "/>
<path style=" stroke:none;fill-rule:nonzero;fill:rgb(90.196078%,90.196078%,90.196078%);fill-opacity:1;" d="M 800.238281 125.75 C 800.238281 125.75 831.957031 112.945312 849.515625 123.816406 C 867.074219 134.691406 932.851562 247.578125 932.851562 247.578125 L 988.214844 331.644531 L 946.871094 342.964844 L 820.363281 200.300781 Z M 800.238281 125.75 "/>
<path style=" stroke:none;fill-rule:nonzero;fill:rgb(24.705882%,23.921569%,33.72549%);fill-opacity:1;" d="M 952.914062 698.871094 C 952.914062 699.851562 951.746094 700.636719 950.285156 700.636719 L 2.628906 700.636719 C 1.167969 700.636719 0 699.851562 0 698.871094 C 0 698.398438 0.265625 697.980469 0.707031 697.671875 L 198.765625 697.671875 C 202.980469 697.671875 207.109375 697.476562 211.167969 697.105469 L 950.285156 697.105469 C 951.746094 697.105469 952.914062 697.894531 952.914062 698.871094 Z M 952.914062 698.871094 "/>
<path style=" stroke:none;fill-rule:nonzero;fill:rgb(100%,71.372549%,71.372549%);fill-opacity:1;" d="M 564.90625 407.164062 C 568.84375 400.9375 576.820312 397.257812 582.71875 398.941406 C 588.617188 400.625 590.203125 407.039062 586.257812 413.265625 C 584.738281 415.769531 582.339844 417.988281 579.28125 419.742188 L 562.089844 445.980469 L 543.933594 440.300781 L 562.808594 415.039062 C 562.5625 412.335938 563.28125 409.636719 564.90625 407.164062 Z M 564.90625 407.164062 "/>
<path style=" stroke:none;fill-rule:nonzero;fill:rgb(100%,71.372549%,71.372549%);fill-opacity:1;" d="M 490.707031 425.121094 C 490.707031 440.183594 472.53125 452.398438 450.105469 452.398438 C 427.683594 452.398438 409.503906 440.183594 409.503906 425.121094 C 409.503906 410.054688 427.683594 397.84375 450.105469 397.84375 C 472.53125 397.84375 490.707031 410.054688 490.707031 425.121094 Z M 490.707031 425.121094 "/>
<path style=" stroke:none;fill-rule:nonzero;fill:rgb(13.72549%,94.509804%,86.27451%);fill-opacity:1;" d="M 501.175781 457.898438 L 540.910156 447.519531 L 554.15625 416.375 L 582.851562 423.789062 L 560.777344 468.28125 L 501.175781 483.578125 Z M 501.175781 457.898438 "/>
<path style=" stroke:none;fill-rule:nonzero;fill:rgb(18.431373%,18.039216%,25.490196%);fill-opacity:1;" d="M 444.769531 455.449219 L 468.984375 442.210938 C 468.984375 442.210938 466.691406 422.375 475.394531 420.589844 C 484.101562 418.804688 493.183594 411.679688 493.183594 411.679688 C 493.183594 411.679688 478.773438 389.8125 453.410156 393.132812 C 428.050781 396.449219 433.835938 391.402344 418.207031 396.964844 C 402.578125 402.523438 398.910156 409.945312 400.8125 417.828125 C 402.714844 425.710938 397.058594 445.296875 415.988281 446.304688 C 434.917969 447.316406 444.769531 455.449219 444.769531 455.449219 Z M 444.769531 455.449219 "/>
<path style=" stroke:none;fill-rule:nonzero;fill:rgb(18.431373%,18.039216%,25.490196%);fill-opacity:1;" d="M 658.171875 63.804688 C 653.566406 58.164062 655.957031 55.472656 651.804688 53.269531 C 651.804688 53.269531 650.132812 52.382812 637.550781 51.25 C 636.351562 37.421875 633.015625 35.574219 633.015625 35.574219 C 629.171875 33.441406 623.058594 33.738281 619.164062 34.707031 C 610.921875 36.753906 611.207031 42.144531 605.734375 42.878906 C 598.175781 43.894531 618.785156 35.214844 618.542969 26.027344 C 618.347656 18.535156 626.335938 11.699219 629.117188 12.234375 C 631.878906 12.761719 639.273438 7.367188 642.886719 7.648438 C 645.355469 7.84375 655.820312 5.433594 658.511719 5.808594 C 661.453125 6.21875 670.84375 10.179688 671.34375 9.417969 C 674.828125 4.117188 674.171875 2.558594 676.765625 1.128906 C 681.359375 -1.40625 688.109375 0.894531 698.933594 2.515625 C 721.199219 5.847656 725.722656 1.070312 736.863281 5.070312 C 742.488281 7.09375 746.820312 11.960938 755.25 21.617188 C 767.042969 35.117188 772.941406 41.871094 772.09375 49.328125 C 771.234375 56.9375 765.808594 56.160156 762.0625 67.289062 C 757.894531 79.679688 762.90625 85.714844 756.199219 89.453125 C 751.019531 92.339844 708.042969 92.5625 703.234375 89.527344 C 695.003906 84.324219 707.871094 73.53125 699.132812 64.675781 C 693.765625 59.238281 682.027344 56.316406 676.222656 58.550781 C 669.664062 61.074219 672.09375 69.65625 667.625 70.214844 C 663.796875 70.695312 658.972656 64.789062 658.171875 63.804688 Z M 658.171875 63.804688 "/>
<path style=" stroke:none;fill-rule:nonzero;fill:rgb(100%,71.372549%,71.372549%);fill-opacity:1;" d="M 352.449219 408.554688 C 361.238281 403.566406 358.902344 392.003906 347.238281 382.726562 C 342.132812 378.667969 336.085938 375.71875 330.160156 374.105469 L 323.355469 368.824219 L 235.4375 294.820312 C 235.4375 294.820312 186.75 221.195312 172.375 213.242188 C 158.003906 205.289062 141.09375 209.429688 141.09375 209.429688 L 127.902344 220.398438 L 210.117188 323.191406 L 294.257812 380.078125 L 305.617188 388.035156 C 306.996094 392.226562 310.316406 396.726562 315.417969 400.785156 C 327.085938 410.0625 343.664062 413.539062 352.449219 408.554688 Z M 352.449219 408.554688 "/>
<path style=" stroke:none;fill-rule:nonzero;fill:rgb(90.196078%,90.196078%,90.196078%);fill-opacity:1;" d="M 186.492188 226.933594 L 208.527344 248.640625 L 240.15625 280.089844 L 183.320312 293.296875 L 133.144531 235.453125 Z M 186.492188 226.933594 "/>
<path style=" stroke:none;fill-rule:nonzero;fill:rgb(100%,71.372549%,71.372549%);fill-opacity:1;" d="M 208.863281 153.050781 L 192.90625 193.921875 L 132.070312 185.882812 C 132.070312 185.882812 156.007812 156.402344 150.023438 143.003906 Z M 208.863281 153.050781 "/>
<path style=" stroke:none;fill-rule:nonzero;fill:rgb(100%,71.372549%,71.372549%);fill-opacity:1;" d="M 144.644531 685.0625 L 181.277344 685.0625 L 198.707031 590.128906 L 144.636719 590.128906 Z M 144.644531 685.0625 "/>
<path style=" stroke:none;fill-rule:nonzero;fill:rgb(18.431373%,18.039216%,25.490196%);fill-opacity:1;" d="M 270.160156 684.503906 C 271.300781 685.796875 271.902344 689.960938 271.902344 691.460938 C 271.902344 696.074219 266.332031 699.816406 259.46875 699.816406 L 146.011719 699.816406 C 141.328125 699.816406 137.53125 697.265625 137.53125 694.117188 L 137.53125 690.941406 C 137.53125 690.941406 131.917969 681.40625 143.472656 669.652344 C 143.472656 669.652344 157.835938 678.855469 179.292969 664.4375 L 185.621094 656.734375 L 231.429688 679.242188 L 256.820312 681.34375 C 262.375 681.800781 267.300781 681.273438 270.160156 684.503906 Z M 270.160156 684.503906 "/>
<path style=" stroke:none;fill-rule:nonzero;fill:rgb(18.431373%,18.039216%,25.490196%);fill-opacity:1;" d="M 246.367188 410.324219 L 195.882812 641.109375 L 132.550781 641.109375 L 140.96875 509.371094 L 145.402344 440.101562 L 132.550781 407.132812 C 132.550781 407.132812 126.6875 399.800781 121.75 390.917969 C 116.1875 380.894531 111.789062 368.875 118.316406 363.175781 C 120.714844 361.074219 126.957031 359.519531 135.441406 358.359375 C 140.625 357.648438 146.65625 357.09375 153.171875 356.664062 C 190.625 354.175781 243.902344 355.730469 243.902344 355.730469 L 245.257812 385.757812 L 246.007812 402.523438 Z M 246.367188 410.324219 "/>
<path style=" stroke:none;fill-rule:nonzero;fill:rgb(100%,71.372549%,71.372549%);fill-opacity:1;" d="M 80.109375 673.777344 L 116.355469 677.355469 L 154.152344 585.132812 L 100.65625 579.851562 Z M 80.109375 673.777344 "/>
<path style=" stroke:none;fill-rule:nonzero;fill:rgb(18.431373%,18.039216%,25.490196%);fill-opacity:1;" d="M 204.410156 685.488281 C 205.261719 686.878906 204.953125 691.058594 204.628906 692.542969 C 203.628906 697.105469 197.3125 700.261719 190.519531 699.59375 L 78.273438 688.503906 C 73.636719 688.046875 70.429688 685.152344 71.113281 682.039062 L 71.800781 678.898438 C 71.800781 678.898438 68.3125 668.914062 82.289062 658.414062 C 82.289062 658.414062 94.503906 668.921875 118.855469 656.757812 L 126.785156 649.753906 L 167.234375 676.5 L 191.902344 681.058594 C 197.296875 682.054688 202.28125 682.011719 204.410156 685.488281 Z M 204.410156 685.488281 "/>
<path style=" stroke:none;fill-rule:nonzero;fill:rgb(18.431373%,18.039216%,25.490196%);fill-opacity:1;" d="M 247.160156 371.835938 L 240.234375 411.894531 L 202.476562 496.3125 L 140.316406 635.292969 L 77.660156 629.109375 L 133.894531 431.5 L 128.324219 397.613281 C 128.324219 397.613281 126.511719 394.246094 124.433594 389.316406 C 120.308594 379.558594 115.132812 363.671875 120.828125 355.570312 C 121.59375 354.46875 122.5625 353.511719 123.753906 352.738281 C 125.992188 351.28125 130.542969 350.394531 136.640625 349.925781 C 162.125 347.988281 214.609375 353.523438 237.964844 356.242188 Z M 247.160156 371.835938 "/>
<path style=" stroke:none;fill-rule:nonzero;fill:rgb(90.196078%,90.196078%,90.196078%);fill-opacity:1;" d="M 198.890625 181.863281 L 267.707031 240.152344 L 255.351562 300.925781 L 244.765625 362.765625 L 120.101562 350.035156 C 120.101562 350.035156 147.03125 306.484375 150.023438 304.476562 C 153.015625 302.464844 160.53125 307.429688 155.273438 300.925781 C 150.023438 294.425781 144.039062 294.425781 149.023438 291.074219 C 154.011719 287.726562 110.128906 244.175781 110.128906 220.722656 C 110.128906 197.273438 131.074219 178.511719 131.074219 178.511719 Z M 198.890625 181.863281 "/>
<path style=" stroke:none;fill-rule:nonzero;fill:rgb(100%,71.372549%,71.372549%);fill-opacity:1;" d="M 229.191406 129.628906 C 229.191406 146.828125 208.4375 160.769531 182.835938 160.769531 C 157.234375 160.769531 136.480469 146.828125 136.480469 129.628906 C 136.480469 112.425781 157.234375 98.484375 182.835938 98.484375 C 208.4375 98.484375 229.191406 112.425781 229.191406 129.628906 Z M 229.191406 129.628906 "/>
<path style=" stroke:none;fill-rule:nonzero;fill:rgb(18.431373%,18.039216%,25.490196%);fill-opacity:1;" d="M 180.667969 189.171875 C 180.667969 189.171875 187.605469 152.296875 188.832031 141.574219 C 190.0625 130.851562 212.589844 114.109375 212.589844 114.109375 L 228.554688 122.769531 C 228.554688 122.769531 242.058594 122.769531 232.851562 109.574219 C 223.640625 96.375 206.453125 94.3125 206.453125 94.3125 C 206.453125 94.3125 204.609375 76.992188 172.6875 79.054688 C 140.765625 81.117188 126.644531 98.4375 126.644531 98.4375 C 126.644531 98.4375 124.804688 76.578125 104.546875 92.664062 C 84.285156 108.75 72.621094 115.347656 94.109375 120.707031 C 115.59375 126.070312 131.558594 121.945312 131.558594 121.945312 C 131.558594 121.945312 110.683594 124.832031 114.367188 134.730469 C 118.050781 144.628906 65.867188 189.585938 89.8125 194.535156 C 113.753906 199.484375 167.160156 211.445312 173.300781 203.609375 C 179.441406 195.773438 180.667969 189.171875 180.667969 189.171875 Z M 180.667969 189.171875 "/>
<path style=" stroke:none;fill-rule:nonzero;fill:rgb(100%,71.372549%,71.372549%);fill-opacity:1;" d="M 371.757812 411.640625 C 380.609375 406.703125 378.421875 395.128906 366.871094 385.789062 C 361.816406 381.699219 355.804688 378.714844 349.902344 377.066406 L 343.160156 371.75 L 256.167969 297.253906 C 256.167969 297.253906 208.402344 223.359375 194.128906 215.324219 C 179.855469 207.289062 162.894531 211.335938 162.894531 211.335938 L 149.566406 222.226562 L 230.496094 325.480469 L 313.921875 382.839844 L 325.183594 390.859375 C 326.511719 395.0625 329.769531 399.578125 334.828125 403.667969 C 346.378906 413.007812 362.910156 416.578125 371.757812 411.640625 Z M 371.757812 411.640625 "/>
<path style=" stroke:none;fill-rule:nonzero;fill:rgb(90.196078%,90.196078%,90.196078%);fill-opacity:1;" d="M 144.515625 205.609375 C 144.515625 205.609375 165.8125 279.851562 190.042969 290.796875 L 238.332031 265.5 C 238.332031 265.5 242.5625 265.378906 234.695312 259.410156 C 226.832031 253.441406 228.84375 240.625 228.84375 240.625 C 228.84375 240.625 232.382812 243.703125 224.683594 239.429688 C 216.980469 235.160156 224.148438 205.792969 224.148438 205.792969 Z M 144.515625 205.609375 "/>
<path style=" stroke:none;fill-rule:nonzero;fill:rgb(100%,71.372549%,71.372549%);fill-opacity:1;" d="M 496.230469 511.921875 C 495.214844 511.921875 494.296875 511.445312 494.074219 510.75 L 491.644531 503.175781 C 488.078125 492.035156 473.753906 483.898438 456.804688 483.390625 C 441.105469 482.917969 426.558594 489.164062 420.59375 498.929688 L 414.503906 508.902344 C 414.042969 509.660156 412.753906 510.023438 411.625 509.710938 C 410.496094 509.402344 409.957031 508.535156 410.417969 507.777344 L 416.511719 497.804688 C 423.179688 486.882812 439.433594 479.910156 457.003906 480.425781 C 475.953125 480.996094 491.972656 490.09375 495.964844 502.550781 L 498.390625 510.125 C 498.648438 510.925781 497.886719 511.714844 496.699219 511.886719 C 496.542969 511.910156 496.382812 511.921875 496.230469 511.921875 Z M 496.230469 511.921875 "/>
<path style=" stroke:none;fill-rule:nonzero;fill:rgb(100%,71.372549%,71.372549%);fill-opacity:1;" d="M 498.835938 536.039062 C 498.773438 536.039062 498.707031 536.039062 498.640625 536.035156 L 416.949219 531.140625 C 415.738281 531.066406 414.839844 530.347656 414.949219 529.53125 C 415.058594 528.714844 416.117188 528.117188 417.34375 528.1875 L 499.03125 533.078125 C 500.246094 533.152344 501.144531 533.871094 501.03125 534.6875 C 500.933594 535.460938 499.96875 536.039062 498.835938 536.039062 Z M 498.835938 536.039062 "/>
</g>
</svg>
