<?xml version="1.0" encoding="UTF-8"?>
<svg xmlns="http://www.w3.org/2000/svg" xmlns:xlink="http://www.w3.org/1999/xlink" width="700px" height="500px" viewBox="0 0 700 500" version="1.1">
<g id="surface1">
<path style=" stroke:none;fill-rule:nonzero;fill:rgb(94.901961%,94.901961%,94.901961%);fill-opacity:1;" d="M 282.433594 403.414062 C 281.128906 401.90625 275.484375 403.519531 274.449219 402.152344 C 273.414062 400.789062 278.65625 398.710938 281.652344 393.964844 C 282.195312 393.109375 285.597656 387.714844 283.078125 386.050781 C 278.300781 382.894531 256.4375 395.914062 248.789062 391.65625 C 247.109375 390.71875 245.9375 388.851562 240.855469 385.820312 C 238.832031 384.613281 237.609375 384.070312 236.425781 384.273438 C 234.746094 384.5625 234.617188 386.101562 232.816406 389.128906 C 230.113281 393.671875 228.519531 393.398438 226.945312 397.019531 C 225.777344 399.710938 226.046875 401.273438 224.671875 401.578125 C 222.726562 402.007812 220.9375 399.15625 218.472656 399.410156 C 215.957031 399.671875 214.4375 402.996094 213.957031 405.484375 C 213.054688 410.152344 215.558594 413.230469 216.941406 416.46875 C 218.449219 419.988281 219.34375 425.339844 215.867188 432.914062 L 181.441406 499.40625 C 189.039062 485.765625 211.046875 448.363281 220.292969 434.464844 C 222.960938 430.453125 225.90625 426.382812 231.960938 424.777344 C 237.789062 423.230469 245.789062 424.15625 255.988281 422.46875 C 257.179688 422.269531 260.488281 421.695312 260.902344 420.363281 C 261.25 419.261719 259.300781 418.644531 259.601562 417.613281 C 260.003906 416.226562 263.828125 416.210938 268.527344 414.613281 C 271.839844 413.488281 273.902344 412.148438 275.679688 410.996094 C 276.214844 410.648438 284.171875 405.421875 282.433594 403.414062 Z M 282.433594 403.414062 "/>
<path style=" stroke:none;fill-rule:nonzero;fill:rgb(94.901961%,94.901961%,94.901961%);fill-opacity:1;" d="M 147 438.417969 C 145.542969 438.421875 145.070312 440.785156 143.792969 440.738281 C 142.519531 440.695312 142.542969 438.332031 140.007812 435.953125 C 139.550781 435.523438 136.671875 432.824219 134.753906 433.1875 C 131.117188 433.886719 134.128906 445 128.871094 446.34375 C 127.71875 446.640625 126.042969 446.496094 122.40625 447.332031 C 120.960938 447.664062 120.21875 447.917969 120.019531 448.375 C 119.742188 449.023438 120.808594 449.511719 122.457031 450.992188 C 124.929688 453.207031 124.273438 453.667969 126.410156 455.242188 C 128 456.410156 129.199219 456.773438 129.019531 457.324219 C 128.765625 458.101562 126.207031 457.878906 125.679688 458.785156 C 125.140625 459.703125 127.078125 461.175781 128.722656 462.054688 C 131.804688 463.703125 134.730469 463.75 137.449219 464.21875 C 140.402344 464.730469 144.492188 465.972656 148.914062 469.328125 L 186.585938 500.09375 C 179.011719 493.601562 158.582031 475.40625 151.300781 468.285156 C 149.199219 466.230469 147.132812 464.0625 147.730469 461.5625 C 148.304688 459.15625 151.273438 456.734375 153.011719 452.8125 C 153.214844 452.355469 153.753906 451.078125 152.921875 450.550781 C 152.230469 450.117188 151.230469 450.59375 150.578125 450.195312 C 149.703125 449.664062 150.792969 448.371094 151.003906 446.328125 C 151.152344 444.886719 150.792969 443.808594 150.480469 442.875 C 150.382812 442.597656 148.9375 438.414062 147 438.417969 Z M 147 438.417969 "/>
<path style=" stroke:none;fill-rule:nonzero;fill:rgb(94.901961%,94.901961%,94.901961%);fill-opacity:1;" d="M 176.050781 442.886719 L 175.171875 437.519531 L 175.574219 437.113281 C 177.429688 435.230469 178.375 433.394531 178.382812 431.644531 C 178.386719 431.371094 178.367188 431.09375 178.351562 430.808594 C 178.273438 429.691406 178.179688 428.296875 179.238281 426.675781 C 179.832031 425.769531 181.5 423.675781 184.007812 423.933594 C 184.683594 424 185.191406 424.214844 185.578125 424.460938 C 185.636719 424.398438 185.695312 424.335938 185.757812 424.269531 C 186.539062 423.453125 187.15625 423.101562 187.753906 422.765625 C 188.210938 422.503906 188.683594 422.242188 189.421875 421.605469 C 189.75 421.332031 190.003906 421.085938 190.214844 420.882812 C 190.863281 420.261719 191.710938 419.523438 193.203125 419.535156 C 194.800781 419.585938 195.636719 420.492188 196.191406 421.089844 C 197.179688 422.160156 197.628906 422.929688 197.925781 423.441406 C 198.03125 423.628906 198.15625 423.835938 198.21875 423.902344 C 198.730469 424.417969 202.914062 423.933594 204.488281 423.757812 C 208.023438 423.355469 211.085938 423.003906 212.347656 424.535156 C 213.25 425.628906 212.582031 427.074219 210.292969 428.949219 C 209.578125 429.53125 208.820312 429.976562 208.148438 430.324219 C 208.707031 430.550781 209.203125 430.902344 209.40625 431.449219 C 209.882812 432.75 208.253906 434.058594 204.558594 435.332031 C 203.640625 435.648438 202.40625 436.074219 200.675781 436.28125 C 199.863281 436.375 199.128906 436.402344 198.5 436.410156 C 198.488281 436.660156 198.402344 436.929688 198.179688 437.207031 C 197.535156 438.023438 196.183594 438.414062 194.148438 438.320312 C 191.910156 438.238281 190.066406 437.945312 188.441406 437.691406 C 187.019531 437.464844 185.796875 437.28125 184.835938 437.320312 C 183.054688 437.421875 181.683594 438.398438 180.070312 439.664062 Z M 176.050781 442.886719 "/>
<path style=" stroke:none;fill-rule:nonzero;fill:rgb(94.901961%,94.901961%,94.901961%);fill-opacity:1;" d="M 180.121094 410.921875 L 172.765625 412.867188 L 172.089844 412.703125 C 168.964844 411.949219 166.128906 411.789062 163.667969 412.222656 C 163.273438 412.292969 162.886719 412.378906 162.496094 412.460938 C 160.933594 412.796875 158.992188 413.210938 156.433594 412.921875 C 155.007812 412.757812 151.628906 412.183594 151.359375 410.453125 C 151.28125 409.988281 151.449219 409.597656 151.703125 409.277344 C 151.601562 409.253906 151.496094 409.234375 151.386719 409.207031 C 150.035156 408.898438 149.386719 408.578125 148.757812 408.265625 C 148.277344 408.027344 147.78125 407.78125 146.699219 407.453125 C 146.226562 407.308594 145.816406 407.203125 145.476562 407.109375 C 144.4375 406.839844 143.179688 406.464844 142.816406 405.46875 C 142.488281 404.398438 143.550781 403.613281 144.253906 403.09375 C 145.511719 402.167969 146.484375 401.675781 147.128906 401.351562 C 147.367188 401.230469 147.632812 401.097656 147.707031 401.039062 C 148.308594 400.566406 146.5625 397.914062 145.914062 396.917969 C 144.449219 394.671875 143.175781 392.730469 145.015625 391.507812 C 146.328125 390.628906 148.542969 390.707031 151.765625 391.753906 C 152.769531 392.074219 153.585938 392.464844 154.25 392.824219 C 154.429688 392.398438 154.796875 391.976562 155.519531 391.703125 C 157.234375 391.058594 159.488281 391.808594 162.226562 393.933594 C 162.90625 394.460938 163.820312 395.171875 164.546875 396.265625 C 164.890625 396.78125 165.109375 397.261719 165.289062 397.675781 C 165.640625 397.621094 166.042969 397.613281 166.492188 397.6875 C 167.808594 397.910156 168.699219 398.707031 169.082031 400.078125 C 169.539062 401.585938 169.59375 402.882812 169.644531 404.023438 C 169.6875 405.023438 169.730469 405.882812 170.039062 406.507812 C 170.628906 407.664062 172.355469 408.324219 174.550781 409.074219 Z M 180.121094 410.921875 "/>
<path style=" stroke:none;fill-rule:nonzero;fill:rgb(94.901961%,94.901961%,94.901961%);fill-opacity:1;" d="M 176.050781 395.105469 L 175.171875 389.738281 L 175.574219 389.332031 C 177.429688 387.445312 178.375 385.609375 178.382812 383.863281 C 178.386719 383.589844 178.367188 383.308594 178.351562 383.027344 C 178.273438 381.910156 178.179688 380.515625 179.238281 378.890625 C 179.832031 377.988281 181.5 375.894531 184.007812 376.152344 C 184.683594 376.214844 185.191406 376.429688 185.578125 376.679688 C 185.636719 376.617188 185.695312 376.554688 185.757812 376.488281 C 186.539062 375.667969 187.15625 375.320312 187.753906 374.984375 C 188.210938 374.722656 188.683594 374.457031 189.421875 373.824219 C 189.75 373.546875 190.003906 373.304688 190.214844 373.101562 C 190.863281 372.480469 191.710938 371.742188 193.203125 371.753906 C 194.800781 371.804688 195.636719 372.710938 196.191406 373.308594 C 197.179688 374.378906 197.628906 375.148438 197.925781 375.660156 C 198.03125 375.84375 198.15625 376.054688 198.21875 376.117188 C 198.730469 376.636719 202.914062 376.152344 204.488281 375.976562 C 208.023438 375.570312 211.085938 375.21875 212.347656 376.753906 C 213.25 377.847656 212.582031 379.292969 210.292969 381.167969 C 209.578125 381.75 208.820312 382.191406 208.148438 382.539062 C 208.707031 382.769531 209.203125 383.121094 209.40625 383.667969 C 209.882812 384.96875 208.253906 386.273438 204.558594 387.546875 C 203.640625 387.867188 202.40625 388.292969 200.675781 388.496094 C 199.863281 388.59375 199.128906 388.617188 198.5 388.628906 C 198.488281 388.878906 198.402344 389.148438 198.179688 389.425781 C 197.535156 390.242188 196.183594 390.628906 194.148438 390.539062 C 191.910156 390.457031 190.066406 390.164062 188.441406 389.90625 C 187.019531 389.683594 185.796875 389.496094 184.835938 389.539062 C 183.054688 389.636719 181.683594 390.617188 180.070312 391.882812 Z M 176.050781 395.105469 "/>
<path style=" stroke:none;fill-rule:nonzero;fill:rgb(94.901961%,94.901961%,94.901961%);fill-opacity:1;" d="M 184.0625 499.320312 L 182.421875 498.613281 L 182.023438 497.316406 L 182.421875 498.613281 L 180.507812 498.765625 C 180.480469 498.640625 180.375 498.363281 180.21875 497.925781 C 179.359375 495.523438 176.75 488.21875 174.570312 476.714844 C 173.050781 468.683594 172.191406 460.425781 172.011719 452.167969 C 171.835938 443.898438 172.40625 437.640625 172.863281 432.605469 C 173.210938 428.8125 173.628906 425.199219 174.042969 421.675781 C 175.136719 412.269531 176.171875 403.386719 175.402344 393.550781 C 175.234375 391.355469 174.875 386.785156 170.980469 381.921875 C 168.722656 379.101562 165.609375 376.597656 161.730469 374.484375 L 164.140625 372.40625 C 168.425781 374.742188 171.867188 377.515625 174.375 380.648438 C 178.695312 386.039062 179.085938 391.019531 179.273438 393.414062 C 180.054688 403.421875 179.007812 412.390625 177.902344 421.886719 C 177.492188 425.394531 177.070312 428.992188 176.730469 432.773438 C 176.273438 437.757812 175.707031 443.964844 175.886719 452.125 C 176.058594 460.285156 176.910156 468.441406 178.410156 476.371094 C 180.5625 487.730469 183.132812 494.925781 183.980469 497.289062 C 184.429688 498.554688 184.523438 498.820312 184.0625 499.320312 Z M 184.0625 499.320312 "/>
<path style=" stroke:none;fill-rule:nonzero;fill:rgb(94.901961%,94.901961%,94.901961%);fill-opacity:1;" d="M 154.628906 378.699219 C 154.46875 378.699219 154.308594 378.695312 154.144531 378.691406 C 150.847656 378.570312 147.792969 377.214844 145.066406 374.671875 C 143.789062 373.472656 143.136719 372.105469 141.832031 369.378906 C 141.628906 368.960938 140.644531 366.832031 140.046875 363.898438 C 139.65625 361.984375 139.707031 361.179688 140.257812 360.472656 C 140.871094 359.683594 141.867188 359.136719 142.988281 358.765625 C 142.9375 358.511719 142.976562 358.25 143.140625 357.984375 C 143.800781 356.875 145.554688 357.019531 146.503906 357.089844 C 146.984375 357.132812 147.582031 357.1875 148.230469 357.164062 C 149.246094 357.128906 149.792969 356.921875 150.621094 356.609375 C 151.414062 356.3125 152.398438 355.941406 153.859375 355.738281 C 156.742188 355.328125 159.15625 355.882812 159.953125 356.070312 C 164.140625 357.027344 166.207031 359.257812 168.59375 361.839844 C 169.070312 362.359375 170.707031 364.25 171.785156 366.835938 C 172.566406 368.703125 172.457031 369.53125 172.222656 370.148438 C 171.746094 371.417969 170.617188 372.144531 167.761719 373.746094 C 164.78125 375.421875 163.28125 376.261719 161.996094 376.773438 C 159.003906 377.957031 157.125 378.699219 154.628906 378.699219 Z M 154.628906 378.699219 "/>
<path style=" stroke:none;fill-rule:nonzero;fill:rgb(100%,71.372549%,71.372549%);fill-opacity:1;" d="M 336.015625 494.777344 L 346.15625 494.773438 L 350.980469 467.960938 L 336.015625 467.960938 Z M 336.015625 494.777344 "/>
<path style=" stroke:none;fill-rule:nonzero;fill:rgb(18.431373%,18.039216%,25.490196%);fill-opacity:1;" d="M 370.761719 494.617188 C 371.074219 494.984375 371.242188 496.15625 371.242188 496.582031 C 371.242188 497.886719 369.703125 498.941406 367.800781 498.941406 L 336.398438 498.941406 C 335.101562 498.941406 334.050781 498.222656 334.050781 497.332031 L 334.050781 496.4375 C 334.050781 496.4375 332.492188 493.742188 335.695312 490.421875 C 335.695312 490.421875 339.667969 493.023438 345.609375 488.949219 L 347.359375 486.773438 L 360.039062 493.128906 L 367.070312 493.726562 C 368.605469 493.851562 369.96875 493.707031 370.761719 494.617188 Z M 370.761719 494.617188 "/>
<path style=" stroke:none;fill-rule:nonzero;fill:rgb(100%,71.372549%,71.372549%);fill-opacity:1;" d="M 305.113281 494.777344 L 315.253906 494.773438 L 320.074219 467.960938 L 305.109375 467.960938 Z M 305.113281 494.777344 "/>
<path style=" stroke:none;fill-rule:nonzero;fill:rgb(18.431373%,18.039216%,25.490196%);fill-opacity:1;" d="M 339.855469 494.617188 C 340.171875 494.984375 340.335938 496.15625 340.335938 496.582031 C 340.335938 497.886719 338.796875 498.941406 336.894531 498.941406 L 305.492188 498.941406 C 304.195312 498.941406 303.144531 498.222656 303.144531 497.332031 L 303.144531 496.4375 C 303.144531 496.4375 301.589844 493.742188 304.789062 490.421875 C 304.789062 490.421875 308.761719 493.023438 314.703125 488.949219 L 316.457031 486.773438 L 329.136719 493.128906 L 336.164062 493.726562 C 337.703125 493.851562 339.066406 493.707031 339.855469 494.617188 Z M 339.855469 494.617188 "/>
<path style=" stroke:none;fill-rule:nonzero;fill:rgb(18.431373%,18.039216%,25.490196%);fill-opacity:1;" d="M 347.730469 378.980469 L 358.550781 407.691406 L 353.140625 481.429688 L 327.644531 482.601562 L 326.097656 440.152344 L 323.007812 483.851562 L 296.738281 480.105469 L 295.191406 383.96875 Z M 347.730469 378.980469 "/>
<path style=" stroke:none;fill-rule:nonzero;fill:rgb(100%,71.372549%,71.372549%);fill-opacity:1;" d="M 243.019531 282.296875 C 239.527344 278.097656 233.539062 275.929688 229.644531 277.453125 C 225.746094 278.976562 225.414062 283.613281 228.910156 287.8125 C 230.269531 289.503906 232.203125 290.945312 234.542969 292.019531 L 249.660156 309.683594 L 261.597656 304.644531 L 245.429688 287.765625 C 245.277344 285.835938 244.449219 283.960938 243.019531 282.296875 Z M 243.019531 282.296875 "/>
<path style=" stroke:none;fill-rule:nonzero;fill:rgb(13.72549%,94.509804%,86.27451%);fill-opacity:1;" d="M 311.710938 344.644531 C 311.710938 344.644531 297.386719 358.179688 288.625 353.34375 C 279.863281 348.503906 231.453125 294.132812 231.453125 294.132812 L 250.664062 287.074219 Z M 311.710938 344.644531 "/>
<path style=" stroke:none;fill-rule:nonzero;fill:rgb(100%,71.372549%,71.372549%);fill-opacity:1;" d="M 298.285156 328.128906 L 316.828125 309.0625 L 335.371094 314.359375 L 330.734375 331.308594 Z M 298.285156 328.128906 "/>
<path style=" stroke:none;fill-rule:nonzero;fill:rgb(13.72549%,94.509804%,86.27451%);fill-opacity:1;" d="M 299.828125 323.890625 L 332.277344 322.835938 L 353.914062 327.070312 L 358.550781 405.460938 L 293.648438 401.226562 L 293.648438 359.886719 L 284.378906 338.726562 Z M 299.828125 323.890625 "/>
<path style=" stroke:none;fill-rule:nonzero;fill:rgb(24.705882%,23.921569%,33.72549%);fill-opacity:1;" d="M 353.382812 376.773438 C 352.246094 374.488281 351.789062 372.085938 352.085938 369.683594 C 352.914062 362.90625 353.070312 349.625 342.992188 343.625 L 337.300781 339.398438 C 337.183594 339.3125 337.050781 339.234375 336.925781 339.148438 L 346.347656 323.972656 L 340.65625 322.316406 L 331.917969 336.402344 C 328.039062 334.78125 323.566406 333.886719 318.941406 333.886719 C 313.597656 333.886719 308.492188 335.082031 304.273438 337.183594 L 298.941406 323.792969 L 292.976562 324.910156 L 299.644531 340.179688 C 299.398438 340.382812 299.136719 340.570312 298.90625 340.78125 L 295.652344 343.777344 C 294.855469 344.507812 293.980469 345.183594 293.035156 345.820312 C 291.035156 347.164062 287.136719 350.421875 287.097656 355.4375 C 287.085938 357.152344 286.570312 358.851562 285.808594 360.484375 L 281.9375 368.777344 C 281.574219 369.554688 281.289062 370.347656 281.09375 371.15625 C 279.386719 378.257812 273.480469 411.710938 313.855469 411.039062 C 351.492188 410.414062 353.96875 394.703125 353.75 389.488281 C 353.703125 388.355469 353.851562 387.230469 354.160156 386.117188 C 354.722656 384.078125 355.230469 380.464844 353.382812 376.773438 Z M 353.382812 376.773438 "/>
<path style=" stroke:none;fill-rule:nonzero;fill:rgb(100%,71.372549%,71.372549%);fill-opacity:1;" d="M 523.414062 38.152344 L 526.933594 75.40625 L 482.675781 82.367188 L 485.757812 52.246094 Z M 523.414062 38.152344 "/>
<path style=" stroke:none;fill-rule:nonzero;fill:rgb(100%,71.372549%,71.372549%);fill-opacity:1;" d="M 526.78125 490.898438 L 506.832031 490.894531 L 497.34375 438.148438 L 526.785156 438.148438 Z M 526.78125 490.898438 "/>
<path style=" stroke:none;fill-rule:nonzero;fill:rgb(18.431373%,18.039216%,25.490196%);fill-opacity:1;" d="M 458.433594 490.589844 C 457.8125 491.304688 457.484375 493.617188 457.484375 494.453125 C 457.484375 497.015625 460.515625 499.097656 464.257812 499.097656 L 526.035156 499.097656 C 528.585938 499.097656 530.65625 497.679688 530.65625 495.929688 L 530.65625 494.164062 C 530.65625 494.164062 533.710938 488.867188 527.421875 482.335938 C 527.421875 482.335938 519.601562 487.449219 507.914062 479.4375 L 504.46875 475.160156 L 479.523438 487.664062 L 465.695312 488.832031 C 462.671875 489.085938 459.992188 488.792969 458.433594 490.589844 Z M 458.433594 490.589844 "/>
<path style=" stroke:none;fill-rule:nonzero;fill:rgb(100%,71.372549%,71.372549%);fill-opacity:1;" d="M 580.867188 490.898438 L 560.917969 490.894531 L 551.429688 438.148438 L 580.871094 438.148438 Z M 580.867188 490.898438 "/>
<path style=" stroke:none;fill-rule:nonzero;fill:rgb(18.431373%,18.039216%,25.490196%);fill-opacity:1;" d="M 512.519531 490.589844 C 511.898438 491.304688 511.570312 493.617188 511.570312 494.453125 C 511.570312 497.015625 514.601562 499.097656 518.339844 499.097656 L 580.121094 499.097656 C 582.671875 499.097656 584.738281 497.679688 584.738281 495.929688 L 584.738281 494.164062 C 584.738281 494.164062 587.796875 488.867188 581.503906 482.335938 C 581.503906 482.335938 573.683594 487.449219 561.996094 479.4375 L 558.550781 475.160156 L 533.609375 487.664062 L 519.78125 488.832031 C 516.757812 489.085938 514.074219 488.792969 512.519531 490.589844 Z M 512.519531 490.589844 "/>
<path style=" stroke:none;fill-rule:nonzero;fill:rgb(18.431373%,18.039216%,25.490196%);fill-opacity:1;" d="M 593.425781 240.207031 C 593.425781 240.207031 610.425781 255.035156 607.335938 263.511719 C 604.246094 271.988281 582.609375 466.898438 582.609375 466.898438 L 551.707031 465.84375 L 533.164062 291.054688 L 528.394531 466.898438 L 499.167969 465.84375 L 462.082031 247.621094 Z M 593.425781 240.207031 "/>
<path style=" stroke:none;fill-rule:nonzero;fill:rgb(100%,71.372549%,71.372549%);fill-opacity:1;" d="M 414.753906 287.496094 C 411.832031 295.171875 403.683594 300.363281 396.558594 299.085938 C 389.429688 297.808594 386.023438 290.550781 388.945312 282.871094 C 390.054688 279.792969 392.222656 276.9375 395.265625 274.554688 L 408.246094 242.128906 L 430.3125 246.628906 L 415.171875 278.117188 C 416.128906 281.21875 415.984375 284.4375 414.753906 287.496094 Z M 414.753906 287.496094 "/>
<path style=" stroke:none;fill-rule:nonzero;fill:rgb(100%,71.372549%,71.372549%);fill-opacity:1;" d="M 531.617188 38.796875 C 531.617188 55.515625 511.847656 69.066406 487.460938 69.066406 C 463.078125 69.066406 443.308594 55.515625 443.308594 38.796875 C 443.308594 22.082031 463.078125 8.53125 487.460938 8.53125 C 511.847656 8.53125 531.617188 22.082031 531.617188 38.796875 Z M 531.617188 38.796875 "/>
<path style=" stroke:none;fill-rule:nonzero;fill:rgb(90.196078%,90.196078%,90.196078%);fill-opacity:1;" d="M 482.167969 77.070312 L 528.527344 70.714844 L 579.519531 88.726562 L 590.335938 204.191406 L 604.246094 247.621094 L 460.535156 248.679688 L 466.71875 190.417969 L 457.445312 98.257812 Z M 482.167969 77.070312 "/>
<path style=" stroke:none;fill-rule:nonzero;fill:rgb(90.196078%,90.196078%,90.196078%);fill-opacity:1;" d="M 471.351562 101.433594 C 471.351562 101.433594 446.628906 96.136719 437.355469 105.671875 C 428.085938 115.207031 411.089844 201.011719 411.089844 201.011719 L 394.089844 265.628906 L 424.996094 268.808594 L 475.988281 155.460938 Z M 471.351562 101.433594 "/>
<path style=" stroke:none;fill-rule:nonzero;fill:rgb(100%,71.372549%,71.372549%);fill-opacity:1;" d="M 696.238281 250.355469 C 701.277344 257.5 699.980469 265.074219 693.347656 267.269531 C 686.71875 269.46875 677.257812 265.453125 672.222656 258.308594 C 670.152344 255.472656 669.101562 252.339844 669.164062 249.167969 L 648.375 218.714844 L 669.429688 212.328125 L 687.6875 243.03125 C 691.347656 244.96875 694.28125 247.480469 696.238281 250.355469 Z M 696.238281 250.355469 "/>
<path style=" stroke:none;fill-rule:nonzero;fill:rgb(90.196078%,90.196078%,90.196078%);fill-opacity:1;" d="M 560.167969 89.820312 C 560.167969 89.820312 582.371094 80.675781 594.660156 88.441406 C 606.953125 96.207031 652.996094 176.839844 652.996094 176.839844 L 691.75 236.890625 L 662.808594 244.976562 L 574.253906 143.070312 Z M 560.167969 89.820312 "/>
<path style=" stroke:none;fill-rule:nonzero;fill:rgb(24.705882%,23.921569%,33.72549%);fill-opacity:1;" d="M 667.039062 499.195312 C 667.039062 499.894531 666.222656 500.453125 665.199219 500.453125 L 1.839844 500.453125 C 0.816406 500.453125 0 499.894531 0 499.195312 C 0 498.855469 0.1875 498.558594 0.496094 498.335938 L 139.136719 498.335938 C 142.085938 498.335938 144.976562 498.199219 147.816406 497.933594 L 665.199219 497.933594 C 666.222656 497.933594 667.039062 498.496094 667.039062 499.195312 Z M 667.039062 499.195312 "/>
<path style=" stroke:none;fill-rule:nonzero;fill:rgb(100%,71.372549%,71.372549%);fill-opacity:1;" d="M 395.433594 290.832031 C 398.191406 286.382812 403.773438 283.753906 407.902344 284.957031 C 412.03125 286.160156 413.140625 290.742188 410.382812 295.191406 C 409.316406 296.976562 407.636719 298.5625 405.496094 299.816406 L 393.460938 318.558594 L 380.753906 314.5 L 393.964844 296.457031 C 393.792969 294.527344 394.296875 292.597656 395.433594 290.832031 Z M 395.433594 290.832031 "/>
<path style=" stroke:none;fill-rule:nonzero;fill:rgb(100%,71.372549%,71.372549%);fill-opacity:1;" d="M 343.496094 303.65625 C 343.496094 314.417969 330.773438 323.140625 315.074219 323.140625 C 299.378906 323.140625 286.652344 314.417969 286.652344 303.65625 C 286.652344 292.894531 299.378906 284.175781 315.074219 284.175781 C 330.773438 284.175781 343.496094 292.894531 343.496094 303.65625 Z M 343.496094 303.65625 "/>
<path style=" stroke:none;fill-rule:nonzero;fill:rgb(13.72549%,94.509804%,86.27451%);fill-opacity:1;" d="M 350.824219 327.070312 L 378.636719 319.65625 L 387.910156 297.410156 L 407.996094 302.707031 L 392.542969 334.488281 L 350.824219 345.414062 Z M 350.824219 327.070312 "/>
<path style=" stroke:none;fill-rule:nonzero;fill:rgb(18.431373%,18.039216%,25.490196%);fill-opacity:1;" d="M 311.339844 325.320312 L 328.289062 315.863281 C 328.289062 315.863281 326.683594 301.695312 332.777344 300.421875 C 338.871094 299.144531 345.226562 294.058594 345.226562 294.058594 C 345.226562 294.058594 335.140625 278.4375 317.386719 280.808594 C 299.636719 283.179688 303.6875 279.574219 292.746094 283.546875 C 281.804688 287.515625 279.238281 292.816406 280.570312 298.449219 C 281.898438 304.078125 277.941406 318.070312 291.191406 318.789062 C 304.441406 319.511719 311.339844 325.320312 311.339844 325.320312 Z M 311.339844 325.320312 "/>
<path style=" stroke:none;fill-rule:nonzero;fill:rgb(18.431373%,18.039216%,25.490196%);fill-opacity:1;" d="M 460.71875 45.574219 C 457.496094 41.546875 459.171875 39.625 456.265625 38.050781 C 456.265625 38.050781 455.09375 37.417969 446.285156 36.605469 C 445.445312 26.730469 443.109375 25.410156 443.109375 25.410156 C 440.421875 23.886719 436.140625 24.097656 433.414062 24.789062 C 427.644531 26.253906 427.84375 30.101562 424.015625 30.628906 C 418.722656 31.351562 433.148438 25.152344 432.980469 18.589844 C 432.84375 13.238281 438.4375 8.355469 440.382812 8.738281 C 442.316406 9.117188 447.492188 5.261719 450.019531 5.464844 C 451.75 5.601562 459.074219 3.882812 460.957031 4.148438 C 463.015625 4.441406 469.589844 7.269531 469.941406 6.726562 C 472.378906 2.941406 471.921875 1.828125 473.734375 0.804688 C 476.953125 -1.003906 481.675781 0.640625 489.253906 1.796875 C 504.839844 4.175781 508.007812 0.765625 515.804688 3.621094 C 519.742188 5.066406 522.773438 8.542969 528.675781 15.441406 C 536.929688 25.082031 541.058594 29.90625 540.464844 35.234375 C 539.863281 40.667969 536.066406 40.113281 533.445312 48.0625 C 530.527344 56.914062 534.035156 61.226562 529.339844 63.894531 C 525.714844 65.957031 495.628906 66.117188 492.265625 63.949219 C 486.503906 60.230469 495.507812 52.523438 489.390625 46.195312 C 485.636719 42.3125 477.417969 40.226562 473.355469 41.820312 C 468.765625 43.625 470.464844 49.753906 467.335938 50.152344 C 464.65625 50.496094 461.28125 46.277344 460.71875 45.574219 Z M 460.71875 45.574219 "/>
<path style=" stroke:none;fill-rule:nonzero;fill:rgb(100%,71.372549%,71.372549%);fill-opacity:1;" d="M 246.714844 291.824219 C 252.867188 288.261719 251.230469 280.003906 243.066406 273.375 C 239.492188 270.476562 235.257812 268.371094 231.113281 267.21875 L 226.347656 263.445312 L 164.804688 210.585938 C 164.804688 210.585938 130.726562 157.996094 120.664062 152.316406 C 110.601562 146.636719 98.765625 149.59375 98.765625 149.59375 L 89.53125 157.425781 L 147.082031 230.851562 L 205.980469 271.484375 L 213.929688 277.167969 C 214.898438 280.160156 217.222656 283.375 220.792969 286.273438 C 228.960938 292.902344 240.5625 295.386719 246.714844 291.824219 Z M 246.714844 291.824219 "/>
<path style=" stroke:none;fill-rule:nonzero;fill:rgb(90.196078%,90.196078%,90.196078%);fill-opacity:1;" d="M 130.546875 162.09375 L 145.96875 177.601562 L 168.109375 200.0625 L 128.324219 209.496094 L 93.203125 168.179688 Z M 130.546875 162.09375 "/>
<path style=" stroke:none;fill-rule:nonzero;fill:rgb(100%,71.372549%,71.372549%);fill-opacity:1;" d="M 146.203125 109.320312 L 135.035156 138.515625 L 92.449219 132.773438 C 92.449219 132.773438 109.203125 111.714844 105.015625 102.144531 Z M 146.203125 109.320312 "/>
<path style=" stroke:none;fill-rule:nonzero;fill:rgb(100%,71.372549%,71.372549%);fill-opacity:1;" d="M 101.25 489.332031 L 126.894531 489.332031 L 139.09375 421.519531 L 101.246094 421.519531 Z M 101.25 489.332031 "/>
<path style=" stroke:none;fill-rule:nonzero;fill:rgb(18.431373%,18.039216%,25.490196%);fill-opacity:1;" d="M 189.113281 488.929688 C 189.910156 489.855469 190.332031 492.828125 190.332031 493.902344 C 190.332031 497.195312 186.433594 499.867188 181.628906 499.867188 L 102.207031 499.867188 C 98.929688 499.867188 96.273438 498.046875 96.273438 495.796875 L 96.273438 493.53125 C 96.273438 493.53125 92.34375 486.71875 100.429688 478.324219 C 100.429688 478.324219 110.484375 484.898438 125.503906 474.597656 L 129.933594 469.097656 L 162 485.171875 L 179.773438 486.675781 C 183.664062 487 187.109375 486.625 189.113281 488.929688 Z M 189.113281 488.929688 "/>
<path style=" stroke:none;fill-rule:nonzero;fill:rgb(18.431373%,18.039216%,25.490196%);fill-opacity:1;" d="M 172.457031 293.089844 L 137.117188 457.933594 L 92.785156 457.933594 L 98.679688 363.835938 L 101.78125 314.359375 L 92.785156 290.808594 C 92.785156 290.808594 88.679688 285.570312 85.226562 279.226562 C 81.332031 272.066406 78.25 263.480469 82.820312 259.410156 C 84.5 257.910156 88.871094 256.800781 94.808594 255.972656 C 98.4375 255.464844 102.660156 255.066406 107.21875 254.761719 C 133.4375 252.984375 170.730469 254.09375 170.730469 254.09375 L 171.679688 275.542969 L 172.203125 287.515625 Z M 172.457031 293.089844 "/>
<path style=" stroke:none;fill-rule:nonzero;fill:rgb(100%,71.372549%,71.372549%);fill-opacity:1;" d="M 56.078125 481.269531 L 81.449219 483.824219 L 107.90625 417.953125 L 70.460938 414.179688 Z M 56.078125 481.269531 "/>
<path style=" stroke:none;fill-rule:nonzero;fill:rgb(18.431373%,18.039216%,25.490196%);fill-opacity:1;" d="M 143.085938 489.632812 C 143.683594 490.628906 143.46875 493.613281 143.242188 494.671875 C 142.539062 497.933594 138.117188 500.1875 133.363281 499.710938 L 54.789062 491.789062 C 51.546875 491.460938 49.300781 489.394531 49.78125 487.171875 L 50.261719 484.925781 C 50.261719 484.925781 47.820312 477.796875 57.601562 470.296875 C 57.601562 470.296875 66.152344 477.800781 83.199219 469.113281 L 88.75 464.109375 L 117.0625 483.214844 L 134.332031 486.46875 C 138.109375 487.183594 141.597656 487.152344 143.085938 489.632812 Z M 143.085938 489.632812 "/>
<path style=" stroke:none;fill-rule:nonzero;fill:rgb(18.431373%,18.039216%,25.490196%);fill-opacity:1;" d="M 173.011719 265.597656 L 168.164062 294.210938 L 141.734375 354.507812 L 98.222656 453.78125 L 54.363281 449.363281 L 93.726562 308.214844 L 89.828125 284.007812 C 89.828125 284.007812 88.558594 281.605469 87.101562 278.082031 C 84.214844 271.113281 80.59375 259.765625 84.578125 253.980469 C 85.117188 253.191406 85.792969 252.507812 86.628906 251.957031 C 88.195312 250.914062 91.378906 250.28125 95.648438 249.945312 C 113.488281 248.5625 150.226562 252.515625 166.574219 254.457031 Z M 173.011719 265.597656 "/>
<path style=" stroke:none;fill-rule:nonzero;fill:rgb(90.196078%,90.196078%,90.196078%);fill-opacity:1;" d="M 139.222656 129.902344 L 187.394531 171.539062 L 178.746094 214.945312 L 171.335938 259.117188 L 84.070312 250.023438 C 84.070312 250.023438 102.921875 218.917969 105.015625 217.484375 C 107.109375 216.046875 112.371094 219.59375 108.691406 214.945312 C 105.015625 210.304688 100.828125 210.304688 104.316406 207.910156 C 107.808594 205.519531 77.089844 174.410156 77.089844 157.660156 C 77.089844 140.910156 91.75 127.507812 91.75 127.507812 Z M 139.222656 129.902344 "/>
<path style=" stroke:none;fill-rule:nonzero;fill:rgb(100%,71.372549%,71.372549%);fill-opacity:1;" d="M 160.433594 92.59375 C 160.433594 104.878906 145.90625 114.835938 127.984375 114.835938 C 110.0625 114.835938 95.535156 104.878906 95.535156 92.59375 C 95.535156 80.304688 110.0625 70.347656 127.984375 70.347656 C 145.90625 70.347656 160.433594 80.304688 160.433594 92.59375 Z M 160.433594 92.59375 "/>
<path style=" stroke:none;fill-rule:nonzero;fill:rgb(18.431373%,18.039216%,25.490196%);fill-opacity:1;" d="M 126.46875 135.121094 C 126.46875 135.121094 131.324219 108.785156 132.183594 101.125 C 133.042969 93.464844 148.8125 81.507812 148.8125 81.507812 L 159.988281 87.691406 C 159.988281 87.691406 169.441406 87.691406 162.996094 78.265625 C 156.546875 68.839844 144.515625 67.367188 144.515625 67.367188 C 144.515625 67.367188 143.226562 54.996094 120.882812 56.46875 C 98.535156 57.941406 88.652344 70.3125 88.652344 70.3125 C 88.652344 70.3125 87.363281 54.699219 73.183594 66.1875 C 59 77.679688 50.835938 82.390625 65.875 86.21875 C 80.914062 90.050781 92.089844 87.105469 92.089844 87.105469 C 92.089844 87.105469 77.476562 89.164062 80.054688 96.234375 C 82.636719 103.304688 46.109375 135.417969 62.867188 138.953125 C 79.628906 142.488281 117.011719 151.03125 121.3125 145.433594 C 125.609375 139.839844 126.46875 135.121094 126.46875 135.121094 Z M 126.46875 135.121094 "/>
<path style=" stroke:none;fill-rule:nonzero;fill:rgb(100%,71.372549%,71.372549%);fill-opacity:1;" d="M 260.230469 294.027344 C 266.425781 290.503906 264.894531 282.234375 256.808594 275.5625 C 253.273438 272.640625 249.0625 270.511719 244.929688 269.332031 L 240.210938 265.535156 L 179.316406 212.324219 C 179.316406 212.324219 145.882812 159.542969 135.890625 153.804688 C 125.898438 148.0625 114.027344 150.953125 114.027344 150.953125 L 104.695312 158.734375 L 161.347656 232.484375 L 219.746094 273.457031 L 227.628906 279.183594 C 228.558594 282.1875 230.839844 285.414062 234.378906 288.335938 C 242.464844 295.003906 254.039062 297.554688 260.230469 294.027344 Z M 260.230469 294.027344 "/>
<path style=" stroke:none;fill-rule:nonzero;fill:rgb(90.196078%,90.196078%,90.196078%);fill-opacity:1;" d="M 101.160156 146.863281 C 101.160156 146.863281 116.070312 199.894531 133.03125 207.710938 L 166.832031 189.644531 C 166.832031 189.644531 169.792969 189.554688 164.289062 185.292969 C 158.78125 181.03125 160.191406 171.875 160.191406 171.875 C 160.191406 171.875 162.667969 174.074219 157.277344 171.019531 C 151.886719 167.972656 156.90625 146.996094 156.90625 146.996094 Z M 101.160156 146.863281 "/>
<path style=" stroke:none;fill-rule:nonzero;fill:rgb(100%,71.372549%,71.372549%);fill-opacity:1;" d="M 347.359375 365.660156 C 346.648438 365.660156 346.007812 365.316406 345.851562 364.820312 L 344.152344 359.410156 C 341.65625 351.453125 331.628906 345.640625 319.765625 345.277344 C 308.773438 344.941406 298.589844 349.402344 294.414062 356.378906 L 290.152344 363.5 C 289.828125 364.042969 288.929688 364.300781 288.136719 364.078125 C 287.347656 363.859375 286.96875 363.238281 287.292969 362.699219 L 291.558594 355.574219 C 296.226562 347.773438 307.601562 342.792969 319.902344 343.160156 C 333.167969 343.570312 344.382812 350.066406 347.175781 358.964844 L 348.875 364.375 C 349.054688 364.945312 348.519531 365.511719 347.6875 365.632812 C 347.578125 365.648438 347.46875 365.660156 347.359375 365.660156 Z M 347.359375 365.660156 "/>
<path style=" stroke:none;fill-rule:nonzero;fill:rgb(100%,71.372549%,71.372549%);fill-opacity:1;" d="M 349.1875 382.886719 C 349.140625 382.886719 349.09375 382.886719 349.046875 382.882812 L 291.863281 379.386719 C 291.015625 379.332031 290.386719 378.820312 290.464844 378.238281 C 290.539062 377.652344 291.28125 377.226562 292.140625 377.277344 L 349.320312 380.769531 C 350.171875 380.824219 350.800781 381.335938 350.722656 381.917969 C 350.652344 382.472656 349.976562 382.886719 349.1875 382.886719 Z M 349.1875 382.886719 "/>
</g>
</svg>
